#!OML:ASF F:\VICON\USERDATA\INSTALL\rory3\rory3.ASF
:FULLY-SPECIFIED
:DEGREES
19
root -1.1258699999999995 16.847399999999997 -5.815169999999979 4.657780000000001 5.9494200000000035 5.373740000000002
lfemur -20.7662 2.35953 -30.57289999999999
ltibia 50.8978
lfoot -27.049100000000045 -2.4422900000000123
ltoes -3.465539999999981
rfemur -32.11510000000001 -7.205470000000007 17.53149999999999
rtibia 117.5859999999999
rfoot 12.200800000000005 -4.481049999999992
rtoes 19.08199999999997
lowerback 1.0 1.7777799999999981 -5.1185199999999975
upperback 0.37087499999999857 1.2056200000000004 -1.7966799999999945
thorax -9.07188 0.7578979999999998 0.666664999999999
lowerneck -20.0564 -6.10113 -1.2772599999999987
upperneck 13.7229 -8.885340000000005 5.189839999999999
head 7.81757 -3.775180000000002 0.8119280000000001
lclavicle -2.002169999999998e-14 3.357599999999998e-15
lhumerus -39.855599999999995 -13.20040000000001 95.76929999999999
lradius 110.84199999999998
lwrist 30.456400000000002
lhand -27.114199999999997 1.5750600000000037
lfingers 7.12502
lthumb -0.5303539999999962 31.554099999999995
rclavicle -2.002169999999998e-14 3.357599999999998e-15
rhumerus -47.179899999999996 4.958829999999993 -97.1989
rradius 86.03209999999997
rwrist -17.431899999999995
rhand -22.050999999999995 1.0
rfingers 7.12502
rthumb 4.3594799999999925 11.1338
20
root -1.11806 16.8558 -5.357359999999977 5.2631099999999975 3.805380000000005 5.019470000000009
lfemur -19.315400000000004 3.784279999999999 -30.253099999999982
ltibia 50.061499999999995
lfoot -27.211399999999983 -1.6051900000000145
ltoes -3.207140000000005
rfemur -36.91230000000004 -5.002460000000008 18.256299999999996
rtibia 118.32900000000008
rfoot 12.119799999999994 -4.531190000000007
rtoes 19.217300000000016
lowerback 1.0 2.3322599999999976 -5.3581900000000156
upperback -0.050463100000000316 1.8985500000000002 -1.7151799999999944
thorax -9.4437 1.1124099999999997 0.7143449999999989
lowerneck -19.7747 -5.857289999999997 -1.3339399999999986
upperneck 13.6247 -8.508999999999995 5.069419999999997
head 7.72115 -3.6206099999999997 0.8387709999999998
lclavicle -4.11343999999999e-14 7.0754900000000025e-15
lhumerus -38.46650000000002 -13.218299999999985 95.5809
lradius 111.689
lwrist 29.122800000000005
lhand -27.4468 -0.2966429999999889
lfingers 7.12502
lthumb -0.8516339999999984 29.6814
rclavicle -4.11343999999999e-14 7.0754900000000025e-15
rhumerus -49.431200000000004 4.68514000000001 -97.3623
rradius 86.75890000000001
rwrist -17.5876
rhand -22.349399999999992 1.0
rfingers 7.12502
rthumb 4.071380000000005 11.0303
21
root -1.1182508418152808 17.174651261767146 -2.7210594021393675 4.881662568733124 4.629481921464163 5.006552471007323
lfemur -19.63380907244281 2.4300592482221264 -30.35880147914311
ltibia 44.52378844552081
lfoot -26.935532468887352 -1.493410427664429
ltoes -4.547838137151257
rfemur -31.89322825015732 -5.640821953015433 17.79180351018887
rtibia 113.23628995205189
rfoot 18.800699711262098 -5.586754380569248
rtoes 18.560812287533892
lowerback 1.0 2.219210684071251 -4.96027007557962
upperback 0.25913336448545493 1.853080564125942 -1.8619349709443354
thorax -8.825540050515576 1.0555722778115297 0.4038324092621202
lowerneck -20.55250516828515 -6.045435480505103 -1.188986782900118
upperneck 13.930925714351154 -8.881172754703929 5.036173198962185
head 7.924823494908409 -3.741114863496457 0.7948362913035638
lclavicle 1.0057741099697213e-14 4.5922832498554554e-14
lhumerus -41.53500427783942 -12.35599082643266 94.51591987771857
lradius 112.36129322950055
lwrist 29.42123527277978
lhand -27.08786744211253 -0.48241102900525235
lfingers nan
lthumb -0.48567299050535917 29.526443390134354
rclavicle 1.0222985366812156e-14 4.636640086829316e-14
rhumerus -47.59984701612802 5.17705946171913 -96.42116644170525
rradius 87.97293711508632
rwrist -17.78168960865134
rhand -21.643864663391486 1.0
rfingers nan
rthumb 4.726833255700787 9.010907654064296
22
root -1.0974031229051608 17.338250004532664 -1.4283465598123435 4.275515740781297 4.288688793984557 5.170385545787602
lfemur -18.536878461580354 2.2479537209133422 -30.580769408511422
ltibia 38.8741700281228
lfoot -26.91120965971343 -1.2989399220107547
ltoes -4.456927827657672
rfemur -28.31465955935571 -5.395898499909009 17.0723689680869
rtibia 109.03759032206447
rfoot 24.393780981562955 -5.832513502657522
rtoes 15.705141667199069
lowerback 1.0 2.39194578983724 -5.020250000308828
upperback 0.6255005836688783 2.084219018069533 -1.9975539343389928
thorax -8.213320857793466 1.2031425125836785 0.08364648720764359
lowerneck -21.032716624808323 -6.211869243048295 -1.1493871294372524
upperneck 14.34687816492084 -9.211382091543763 5.032124944837516
head 8.145749626137 -3.857180571087512 0.7668361522443101
lclavicle -3.581977761260478e-14 1.4125470279594037e-14
lhumerus -43.73681466477615 -11.476353179640526 93.71840520850559
lradius 113.26277260880482
lwrist 29.792749418461014
lhand -26.481315309470347 -0.9371351294350427
lfingers nan
lthumb 0.11798306221768273 29.158144855086526
rclavicle -3.6397083549504353e-14 1.43678352100929e-14
rhumerus -46.55497976864541 5.630970903781972 -95.78455882128186
rradius 89.26307517471592
rwrist -17.625894358449088
rhand -21.462750235846627 1.0
rfingers nan
rthumb 4.884202833850826 5.859390838884622
23
root -1.002515576515123 17.465656413870537 0.31184683802117874 4.405013315429703 3.3362923650190104 5.232287045976998
lfemur -17.58569393413931 2.176432704418575 -30.95695734322946
ltibia 33.275654133687
lfoot -27.01203781948712 -0.023413768576018512
ltoes -4.825780095379382
rfemur -26.659312923224398 -4.440736426405316 15.825593148900232
rtibia 106.04154012691026
rfoot 30.087234155590494 -3.9119304570724545
rtoes 21.445328787474217
lowerback 1.0 2.5734545618957556 -4.040687601562545
upperback 0.8889240490643762 2.4994860747658847 -2.201543934901415
thorax -6.441289548741295 1.3034291645979956 -0.4197667935887173
lowerneck -20.731255699288724 -6.312131886705984 -1.1469569058259756
upperneck 14.567412670240815 -9.45766050820293 5.036475540798181
head 8.214704321288236 -3.9499604368434587 0.7549474650601924
lclavicle -3.715188729711659e-14 4.475926115500276e-14
lhumerus -45.57125101458601 -10.584326168030701 93.0451722758739
lradius 114.41752899133733
lwrist 30.03934279898838
lhand -26.1045063639607 -1.613853666631596
lfingers nan
lthumb 0.48940801414469703 28.552123441498146
rclavicle -3.774464717214725e-14 4.541878390165343e-14
rhumerus -46.08287172039533 5.987644030491599 -95.36881982078765
rradius 89.53630646055578
rwrist -16.25866496488234
rhand -21.750182692645648 1.0
rfingers nan
rthumb 4.605851514451571 8.107378192999638
24
root -1.0380501798187431 17.55182406544336 0.7979249779581901 4.3124254483000914 4.393589082172344 5.319265384558356
lfemur -17.203297323654525 0.9607359084685407 -30.62636487042117
ltibia 27.622358589130908
lfoot -25.790707272187348 -1.001938145726644
ltoes -4.027781650925874
rfemur -26.49807091867517 -4.943988189117698 16.486884241709767
rtibia 104.54141093720355
rfoot 32.747092255666104 -4.600560350584761
rtoes 27.418973489591096
lowerback 1.0 2.3775116806457763 -4.190010465751531
upperback 0.5990480834958585 2.1559235308038165 -1.986598463584294
thorax -7.43631377590531 1.0561989364829278 -0.25378112457394747
lowerneck -20.493032846919117 -6.415841352572606 -1.1181536409048185
upperneck 14.883317338847005 -9.678856224499151 5.148307278664174
head 8.339925683810574 -4.008437872980975 0.7643042116860176
lclavicle 4.419574891019441e-14 6.615833872394837e-14
lhumerus -47.19317326618279 -9.865736006358812 92.44351394721052
lradius 115.74948339089615
lwrist 30.15014054932398
lhand -26.995080335850435 -1.7767211397192675
lfingers nan
lthumb -0.36144700926930784 28.424205266856795
rclavicle 4.339581047952905e-14 6.685573476885114e-14
rhumerus -45.777030159195746 6.172730910877034 -94.97728666175871
rradius 89.86161868947201
rwrist -16.410797163567967
rhand -21.84688803570839 1.0
rfingers nan
rthumb 4.4943127296058165 9.169194724690392
